<svg style="position: absolute; width: 32; height:32;" width="32" height="32" version="1.1" xmlns="http://www.w3.org/2000/svg" xmlns:xlink="http://www.w3.org/1999/xlink">
    <path class="path1" d="M7.7999841,16.700012L12.599969,21 17.400015,16.700012 18.700003,18.800018C18.700003,18.800018,24.299977,19,25.200001,24.800018L25.200001,32 12.599969,32 10.200008,32 0,32 0,24.800018C0.90002385,19,6.4999968,18.800018,6.4999968,18.800018z M11.999994,0C17.700003,0 22.700001,4.8000183 18.799978,12.5 17.700003,11.800018 18.599966,9 18.299978,7.5 14.599968,7.2000122 9.4999954,8.3000183 7.2999841,6.5 6.700009,8.3000183 5.9999968,10.600006 6.7999846,12.5 4.4000222,10.5 4.70001,5.1000061 5.9000212,2 7.7999841,0.6000061 9.9000198,0 11.999994,0z" />
</svg>
