<svg style="position: absolute; width: 32; height:32;" width="32" height="32" version="1.1" xmlns="http://www.w3.org/2000/svg" xmlns:xlink="http://www.w3.org/1999/xlink">
    <path fill="#6133ff" d="M4.7140198,5.9829999C3.2170105,5.983,2,7.1789839,1.9999998,8.6499922L1.9999998,16.899992C2,18.370024,3.2170105,19.566008,4.7140198,19.566008L6.5710144,19.566008C7.1230164,19.566008,7.5710144,20.013029,7.5710144,20.566008L7.5710144,24.797026 13.346008,19.808989C13.527008,19.652006,13.759003,19.566008,14,19.566008L23.286011,19.566008C24.782013,19.566008,26,18.370024,26,16.899992L26,8.6499922C26,7.1789839,24.782013,5.983,23.286011,5.9829999z M4.7140198,3.9830001L23.286011,3.9830001C25.88501,3.983,28,6.0769942,28,8.6499922L28,16.899992C28,19.47299,25.88501,21.566008,23.286011,21.566008L14.372009,21.566008 7.2250061,27.740019C7.0390015,27.899992 6.8059998,27.983 6.5710144,27.983 6.4300232,27.983 6.2879944,27.954008 6.1549988,27.891997 5.7990112,27.728972 5.5710144,27.375029 5.5710144,26.983L5.5710144,21.566008 4.7140198,21.566008C2.1140137,21.566008,0,19.47299,0,16.899992L0,8.6499922C0,6.0769942,2.1140137,3.983,4.7140198,3.9830001z M8.7690067,0L27.340012,0C29.940012,0,31.985012,2.0220022,31.985012,4.5960051L31.985012,12.846013C31.985012,14.439016,31.199011,16.034017,29.985012,17.019018L29.985012,12.846013 29.985012,4.5960051 29.985012,4.0000043C29.985012,2.8950031,29.08901,2.0000021,27.98501,2.0000021L27.340012,2.0000021 8.7690067,2.0000021 4.8220062,2.0000021C5.6920061,0.78600097,7.1490064,0,8.7690067,0z" />
</svg>
