<?xml version="1.0" encoding="UTF-8" standalone="no" ?>
<!DOCTYPE svg PUBLIC "-//W3C//DTD SVG 1.1//EN" "http://www.w3.org/Graphics/SVG/1.1/DTD/svg11.dtd">
<svg xmlns="http://www.w3.org/2000/svg" height="456" width="456" viewBox="0 0 456 456">
    <path d="M215.83,215.36l15.12,8c4,154.37,97.09,161.53,97.09,161.53H241.3c-50.93-40.58-37.4-163.12-37.4-163.12ZM274,130.2c34.86.17,57.18,30.08,54.83,69.24-16.71-39.78-66.84-44.55-87.53-23.07,50.13-5.57,119.35,28.64,70,128.91-9.55-76.39-69.23-100.27-94.69-103.45-35.81,2.39-83.55,42.18-85.94,103.45C54.3,205.81,176.85,170,206.29,181.15c-6.37-15.92-48.54-29.44-91.51,7.16,15.11-102.65,102.64-36.6,102.64-36.6,19.9-15.12,39-21.49,54.91-21.49Z" fill="#a1f534" />
</svg>